<?xml version="1.0" encoding="UTF-8" standalone="no"?>
<svg
   xmlns:dc="http://purl.org/dc/elements/1.1/"
   xmlns:cc="http://creativecommons.org/ns#"
   xmlns:rdf="http://www.w3.org/1999/02/22-rdf-syntax-ns#"
   xmlns:svg="http://www.w3.org/2000/svg"
   xmlns="http://www.w3.org/2000/svg"
   xmlns:sodipodi="http://sodipodi.sourceforge.net/DTD/sodipodi-0.dtd"
   xmlns:inkscape="http://www.inkscape.org/namespaces/inkscape"
   width="30"
   height="30"
   version="1.1"
   viewBox="0 0 30 30"
   id="svg8"
   sodipodi:docname="bell-1096279.svg"
   inkscape:export-filename="/home/enrique/alive/Homeware-LAN/front/public/global/alert_icon.png"
   inkscape:export-xdpi="96"
   inkscape:export-ydpi="96"
   inkscape:version="0.92.5 (2060ec1f9f, 2020-04-08)">
  <metadata
     id="metadata14">
    <rdf:RDF>
      <cc:Work
         rdf:about="">
        <dc:format>image/svg+xml</dc:format>
        <dc:type
           rdf:resource="http://purl.org/dc/dcmitype/StillImage" />
        <dc:title></dc:title>
      </cc:Work>
    </rdf:RDF>
  </metadata>
  <defs
     id="defs12" />
  <sodipodi:namedview
     pagecolor="#ffffff"
     bordercolor="#666666"
     borderopacity="1"
     objecttolerance="10"
     gridtolerance="10"
     guidetolerance="10"
     inkscape:pageopacity="0"
     inkscape:pageshadow="2"
     inkscape:window-width="1920"
     inkscape:window-height="1016"
     id="namedview10"
     showgrid="false"
     inkscape:zoom="9.44"
     inkscape:cx="-9.8901282"
     inkscape:cy="0.9283401"
     inkscape:window-x="0"
     inkscape:window-y="27"
     inkscape:window-maximized="1"
     inkscape:current-layer="svg8" />
  <g
     transform="matrix(0.03520746,0,0,0.03520746,1.1712551,-8.1073453)"
     id="g6"
     style="fill:#353535">
    <path
       d="M 359.46,341.17 C 224.89,344.6251 176.42,472.69 169.35,541.61 142.04,888.64 88.395,901.4 23.3,904.92 c -17.863,0 -17.609,29.706 0,29.706 h 753.4 c 17.609,0 17.863,-29.706 0,-29.706 -65.096,-3.5224 -118.8,-21.45 -146.11,-368.48 -5.7731,-65.039 -55.477,-191.82 -190.05,-195.27 0,-119.38 -79.898,-116.36 -81.082,0 z"
       id="path2"
       inkscape:connector-curvature="0"
       style="fill-rule:evenodd;fill:#ffffff"
       inkscape:export-xdpi="119.96684"
       inkscape:export-ydpi="119.96684" />
    <path
       d="m 323.14,950.41 a 79.994,79.994 0 0 0 -3.1361,21.951 79.994,79.994 0 0 0 80,80.002 79.994,79.994 0 0 0 80,-80.002 79.994,79.994 0 0 0 -3.0791,-21.951 h -153.78 z"
       style="color:#000000;isolation:auto;mix-blend-mode:normal;solid-color:#000000;color-rendering:auto;image-rendering:auto;shape-rendering:auto;fill:#ffffff"
       id="path4"
       inkscape:connector-curvature="0" />
  </g>
</svg>
