<?xml version="1.0" encoding="UTF-8" standalone="no"?>
<svg
   xmlns:dc="http://purl.org/dc/elements/1.1/"
   xmlns:cc="http://creativecommons.org/ns#"
   xmlns:rdf="http://www.w3.org/1999/02/22-rdf-syntax-ns#"
   xmlns:svg="http://www.w3.org/2000/svg"
   xmlns="http://www.w3.org/2000/svg"
   xmlns:sodipodi="http://sodipodi.sourceforge.net/DTD/sodipodi-0.dtd"
   xmlns:inkscape="http://www.inkscape.org/namespaces/inkscape"
   width="30"
   height="30"
   version="1.1"
   style="clip-rule:evenodd;fill-rule:evenodd;image-rendering:optimizeQuality;shape-rendering:geometricPrecision;text-rendering:geometricPrecision"
   viewBox="0 0 793.74992 793.74993"
   id="svg13"
   sodipodi:docname="devices_icon.svg"
   inkscape:export-filename="/home/enrique/Alive/Homeware-LAN/web/public/devices_icon.png"
   inkscape:export-xdpi="96"
   inkscape:export-ydpi="96"
   inkscape:version="0.92.3 (2405546, 2018-03-11)">
  <metadata
     id="metadata17">
    <rdf:RDF>
      <cc:Work
         rdf:about="">
        <dc:format>image/svg+xml</dc:format>
        <dc:type
           rdf:resource="http://purl.org/dc/dcmitype/StillImage" />
        <dc:title></dc:title>
      </cc:Work>
    </rdf:RDF>
  </metadata>
  <sodipodi:namedview
     pagecolor="#ffffff"
     bordercolor="#666666"
     borderopacity="1"
     objecttolerance="10"
     gridtolerance="10"
     guidetolerance="10"
     inkscape:pageopacity="0"
     inkscape:pageshadow="2"
     inkscape:window-width="1920"
     inkscape:window-height="1025"
     id="namedview15"
     showgrid="false"
     showguides="true"
     inkscape:guide-bbox="true"
     units="px"
     inkscape:zoom="21.851851"
     inkscape:cx="22.040925"
     inkscape:cy="13.716284"
     inkscape:window-x="0"
     inkscape:window-y="27"
     inkscape:window-maximized="1"
     inkscape:current-layer="svg13">
    <sodipodi:guide
       position="397.14404,796.70969"
       orientation="1,0"
       id="guide824"
       inkscape:locked="false" />
  </sodipodi:namedview>
  <defs
     id="defs4">
    <style
       type="text/css"
       id="style2">  .fil0 {fill:#F0F0F0} .fil1 {fill:#011627;fill-rule:nonzero}  </style>
  </defs>
  <g
     id="Layer_x0020_1"
     transform="matrix(0.18480807,0,0,0.18480807,1301.103,-587.95398)">
    <metadata
       id="CorelCorpID_0Corel-Layer" />
    <g
       id="_2744583888992">
      <path
         class="fil1"
         d="m -4295.3391,6859.9153 h -1212 c -47,0 -84,-37 -84,-83 0,-254 -52,-479 -127,-683 -77,-209 -178,-398 -272,-575 -159,-298 -302,-565 -302,-854 v -16 c 4,-445 180,-799 441,-1043 260,-244 606,-376 952,-376 3,0 6,0 8,1 h 5 c 364,3 727,154 989,427 234,245 387,586 387,1007 0,289 -143,556 -301,854 -188,352 -400,748 -400,1258 0,46 -37,83 -84,83 z m -1159,302 c -46,0 -84,-37 -84,-84 0,-46 38,-84 84,-84 h 1106 c 46,0 84,38 84,84 0,47 -38,84 -84,84 z m 385,-1676 h 336 v -117 c 0,-47 37,-84 83,-84 47,0 84,37 84,84 v 1324 h 189 c 21,-509 231,-902 418,-1253 148,-277 282,-527 282,-775 0,-374 -135,-676 -341,-891 -230,-241 -549,-373 -870,-376 h -11 c -304,0 -609,116 -839,331 -229,214 -383,527 -387,921 v 15 c 0,248 134,498 282,775 98,184 202,379 282,596 73,199 126,415 136,657 h 189 v -1324 c 0,-47 37,-84 84,-84 46,0 83,37 83,84 z m 336,1207 v -1039 h -336 v 1039 z m -623,771 c -47,0 -84,-38 -84,-84 0,-46 37,-84 84,-84 h 901 c 47,0 84,38 84,84 0,46 -37,84 -84,84 z"
         id="path9"
         inkscape:connector-curvature="0"
         style="fill:#777777;fill-rule:nonzero;fill-opacity:1" />
    </g>
  </g>
</svg>
