<?xml version="1.0" encoding="UTF-8" standalone="no"?>
<svg
   xmlns:dc="http://purl.org/dc/elements/1.1/"
   xmlns:cc="http://creativecommons.org/ns#"
   xmlns:rdf="http://www.w3.org/1999/02/22-rdf-syntax-ns#"
   xmlns:svg="http://www.w3.org/2000/svg"
   xmlns="http://www.w3.org/2000/svg"
   xmlns:sodipodi="http://sodipodi.sourceforge.net/DTD/sodipodi-0.dtd"
   xmlns:inkscape="http://www.inkscape.org/namespaces/inkscape"
   viewBox="0 0 30 30"
   version="1.1"
   id="svg4"
   sodipodi:docname="status_icon.svg"
   width="30"
   height="30"
   inkscape:version="0.92.3 (2405546, 2018-03-11)">
  <metadata
     id="metadata10">
    <rdf:RDF>
      <cc:Work
         rdf:about="">
        <dc:format>image/svg+xml</dc:format>
        <dc:type
           rdf:resource="http://purl.org/dc/dcmitype/StillImage" />
        <dc:title></dc:title>
      </cc:Work>
    </rdf:RDF>
  </metadata>
  <defs
     id="defs8" />
  <sodipodi:namedview
     pagecolor="#ffffff"
     bordercolor="#666666"
     borderopacity="1"
     objecttolerance="10"
     gridtolerance="10"
     guidetolerance="10"
     inkscape:pageopacity="0"
     inkscape:pageshadow="2"
     inkscape:window-width="1920"
     inkscape:window-height="1025"
     id="namedview6"
     showgrid="false"
     inkscape:zoom="7.8666667"
     inkscape:cx="-9.820058"
     inkscape:cy="20.589666"
     inkscape:window-x="0"
     inkscape:window-y="27"
     inkscape:window-maximized="1"
     inkscape:current-layer="svg4" />
  <path
     d="m 15.176136,29.581187 c -7.2928941,0 -13.2132548,-5.919784 -13.2132548,-13.213253 0,-3.632441 1.4743801,-6.9171892 3.8499952,-9.3053706 l 0.01116,0.011181 c 0.480248,-0.6630111 1.2558928,-1.0980997 2.1365871,-1.0980997 1.4586514,0 2.6437285,1.1832095 2.6437285,2.6418606 0,0.8944101 -0.447285,1.6826657 -1.1279815,2.1608627 l 0.00935,0.0093 c -1.4274065,1.437652 -2.3211717,3.400572 -2.3211717,5.58018 0,4.397067 3.5862632,7.966592 8.0039432,7.966592 4.417611,0 8.001787,-3.569525 8.001787,-7.966592 0,-1.989206 -0.748179,-3.793252 -1.963208,-5.18676 -0.722754,-0.471711 -1.204398,-1.2843363 -1.204398,-2.2111397 0,-1.4586501 1.185077,-2.6437276 2.643728,-2.6437276 0.713094,0 1.357164,0.2879595 1.832703,0.7476043 l 0.03727,-0.037293 c 2.389547,2.3898346 3.870463,5.686792 3.870463,9.331228 0,7.292894 -5.917848,13.213253 -13.2111,13.213253 z m -0.0021,-13.121319 c -1.463894,0 -2.64186,-1.199299 -2.64186,-2.690341 V 3.1110127 c 0,-1.4909707 1.177893,-2.69034143 2.64186,-2.69034143 1.463895,0 2.643729,1.19929843 2.643729,2.69034143 V 13.769527 c 0,1.49097 -1.179762,2.690341 -2.643729,2.690341 z"
     id="path2"
     inkscape:connector-curvature="0"
     style="fill:#777777;fill-rule:evenodd;stroke-width:0.27335784;stroke-linecap:round;stroke-linejoin:round;stroke-dasharray:0.54669333, 0.54669332999999998;stroke-opacity:0.84100001;fill-opacity:1" />
</svg>
