<?xml version="1.0" encoding="UTF-8" standalone="no"?>
<svg
   xmlns:dc="http://purl.org/dc/elements/1.1/"
   xmlns:cc="http://creativecommons.org/ns#"
   xmlns:rdf="http://www.w3.org/1999/02/22-rdf-syntax-ns#"
   xmlns:svg="http://www.w3.org/2000/svg"
   xmlns="http://www.w3.org/2000/svg"
   xmlns:sodipodi="http://sodipodi.sourceforge.net/DTD/sodipodi-0.dtd"
   xmlns:inkscape="http://www.inkscape.org/namespaces/inkscape"
   viewBox="0 0 30 30"
   version="1.1"
   id="svg31"
   sodipodi:docname="help_icon.svg"
   width="30"
   height="30"
   inkscape:version="0.92.3 (2405546, 2018-03-11)"
   inkscape:export-filename="/home/enrique/Alive/Homeware-LAN/web/public/help_icon.png"
   inkscape:export-xdpi="96"
   inkscape:export-ydpi="96">
  <metadata
     id="metadata35">
    <rdf:RDF>
      <cc:Work
         rdf:about="">
        <dc:format>image/svg+xml</dc:format>
        <dc:type
           rdf:resource="http://purl.org/dc/dcmitype/StillImage" />
        <dc:title></dc:title>
      </cc:Work>
    </rdf:RDF>
  </metadata>
  <sodipodi:namedview
     pagecolor="#ffffff"
     bordercolor="#666666"
     borderopacity="1"
     objecttolerance="10"
     gridtolerance="10"
     guidetolerance="10"
     inkscape:pageopacity="0"
     inkscape:pageshadow="2"
     inkscape:window-width="1920"
     inkscape:window-height="1025"
     id="namedview33"
     showgrid="false"
     inkscape:zoom="15.733333"
     inkscape:cx="22.531715"
     inkscape:cy="15.39814"
     inkscape:window-x="0"
     inkscape:window-y="27"
     inkscape:window-maximized="1"
     inkscape:current-layer="svg31" />
  <defs
     id="defs7">
    <radialGradient
       id="a"
       cx="373.5"
       cy="414.60999"
       r="46.668999"
       gradientTransform="matrix(4.5672,0,0,4.5906,-1332.3,-1489)"
       gradientUnits="userSpaceOnUse">
      <stop
         stop-color="#fff"
         stop-opacity="0"
         offset="0"
         id="stop2" />
      <stop
         stop-color="#f3caca"
         stop-opacity=".184"
         offset="1"
         id="stop4" />
    </radialGradient>
  </defs>
  <g
     id="g29"
     style="stroke-linecap:round"
     transform="matrix(0.07687161,0,0,0.07687161,0.51479053,0.45309895)">
    <g
       id="g13"
       style="stroke-width:2">
      <path
         transform="rotate(89.855,193.49,194.16)"
         d="m 52.336,53.015 c -38.79,38.79 -27.019,90.275 -27.019,141.14 0,50.868 -11.772,102.35 27.018,141.14 38.79,38.79 90.282,27.025 141.16,27.032 50.874,0.007 102.36,11.786 141.16,-27.005 38.79,-38.79 27.018,-90.288 27.018,-141.17 0,-50.881 11.772,-102.38 -27.018,-141.17 C 295.864,14.192 244.373,25.97 193.495,25.977 142.621,25.983899 91.135,14.219 52.335,53.009 h 8e-6 z m 3.1668,3.1669 c 37.922,-37.922 88.271,-25.73 138,-25.743 49.732,-0.0138 100.08,-12.234 138,25.688 37.922,37.922 25.716,88.284 25.716,138.03 0,49.746 12.206,100.11 -25.716,138.03 -37.921,37.922 -88.277,25.709 -138.02,25.702 -49.739,-0.007 -100.09,12.192 -138.02,-25.729 -37.922,-37.922 -25.709,-88.264 -25.702,-137.99 0.0069,-49.725 -12.192,-100.07 25.73,-137.99 z"
         id="path9"
         inkscape:connector-curvature="0"
         style="fill:#77777f;stroke:#777777;stroke-dasharray:8, 4;fill-opacity:0.94117647;stroke-opacity:1" />
      <path
         transform="rotate(89.855,194.84,194.16)"
         d="m 35.806,134.97 c -4.0388,-1.673 -8.6686,0.24501 -10.342,4.283 -15.512,37.449 -14.385,77.767 0.0122,112.52 0.802,1.945 2.34,3.504 4.2838,4.309 1.9438,0.80499 4.1335,0.79098 6.0759,-0.017 l 66.877,-27.702 c 1.9427,-0.808 3.4786,-2.35 4.2786,-4.296 0.799,-1.946 0.79601,-4.136 -0.018,-6.076 -0.014,-0.035 -0.038,-0.092 -0.071,-0.173 -0.709,-1.709 -1.324,-3.506 -1.889,-5.351 -0.565,-1.845 -1.0365,-3.651 -1.4092,-5.474 -0.38409,-1.88 -0.6776,-3.78 -0.8744,-5.646 -0.19249,-1.825 -0.28859,-3.748 -0.3037,-5.73 -0.0152,-1.986 0.0293,-3.881 0.1985,-5.737 0.17381,-1.905 0.45491,-3.852 0.8302,-5.796 0.3649,-1.89 0.8599,-3.781 1.4417,-5.721 0.53489,-1.785 1.1909,-3.626 1.9349,-5.446 1.65,-4.034 -0.27,-8.643 -4.2968,-10.311 l -66.728996,-27.64 z m 318.06,0 c 4.039,-1.673 8.669,0.24501 10.342,4.283 15.512,37.449 14.385,77.767 -0.012,112.52 -0.802,1.945 -2.34,3.504 -4.284,4.309 -1.944,0.80499 -4.133,0.79098 -6.076,-0.017 l -66.877,-27.702 c -1.943,-0.808 -3.479,-2.35 -4.278,-4.296 -0.80002,-1.946 -0.797,-4.136 0.017,-6.076 0.015,-0.035 0.038,-0.092 0.072,-0.173 0.70801,-1.709 1.323,-3.506 1.888,-5.351 0.56601,-1.845 1.037,-3.651 1.41,-5.474 0.384,-1.88 0.677,-3.78 0.87399,-5.646 0.19302,-1.825 0.289,-3.748 0.30402,-5.73 0.015,-1.986 -0.029,-3.881 -0.199,-5.737 -0.173,-1.905 -0.45502,-3.852 -0.83002,-5.796 -0.36499,-1.89 -0.85998,-3.781 -1.442,-5.721 -0.535,-1.785 -1.191,-3.626 -1.934,-5.446 -1.651,-4.034 0.26999,-8.643 4.296,-10.311 l 66.729,-27.64 z m -220.59,218.58 c -1.673,4.038 0.24501,8.668 4.283,10.341 37.449,15.512 77.767,14.385 112.52,-0.012 1.946,-0.802 3.504,-2.34 4.309,-4.284 0.80498,-1.943 0.791,-4.133 -0.017,-6.075 l -27.702,-66.878 c -0.80699,-1.942 -2.35,-3.479 -4.296,-4.278 -1.946,-0.79898 -4.136,-0.79599 -6.076,0.018 -0.035,0.014 -0.092,0.038 -0.17302,0.071 -1.709,0.70801 -3.506,1.323 -5.351,1.889 -1.844,0.565 -3.651,1.036 -5.474,1.409 -1.88,0.384 -3.78,0.67798 -5.646,0.87399 -1.825,0.19299 -3.748,0.289 -5.73,0.30399 -1.986,0.015 -3.881,-0.029 -5.737,-0.198 -1.905,-0.17398 -3.852,-0.45499 -5.796,-0.83099 -1.89,-0.36398 -3.781,-0.85901 -5.721,-1.441 -1.785,-0.53598 -3.626,-1.191 -5.446,-1.935 -4.034,-1.65 -8.643,0.27002 -10.311,4.297 l -27.64,66.729 z m 0,-318.76 c -1.673,-4.0387 0.24501,-8.6686 4.283,-10.342 37.449,-15.512 77.767,-14.385 112.52,0.0121 1.946,0.802 3.504,2.34 4.309,4.2838 0.80498,1.9438 0.791,4.1335 -0.017,6.076 l -27.702,66.877 c -0.80699,1.943 -2.35,3.479 -4.296,4.278 -1.946,0.8 -4.136,0.797 -6.076,-0.018 -0.035,-0.014 -0.092,-0.037 -0.17302,-0.071 -1.709,-0.708 -3.506,-1.323 -5.351,-1.888 -1.844,-0.566 -3.651,-1.037 -5.474,-1.41 -1.88,-0.384 -3.78,-0.677 -5.646,-0.874 -1.825,-0.193 -3.748,-0.289 -5.73,-0.304 -1.986,-0.015 -3.881,0.029 -5.737,0.19899 -1.905,0.17301 -3.852,0.45501 -5.796,0.83001 -1.89,0.365 -3.781,0.86 -5.721,1.442 -1.785,0.535 -3.626,1.191 -5.446,1.934 -4.034,1.651 -8.643,-0.27 -10.311,-4.296 l -27.64,-66.728997 z"
         id="path11"
         inkscape:connector-curvature="0"
         style="fill:url(#a);stroke-linejoin:round;stroke-dashoffset:50" />
    </g>
    <g
       id="g27"
       style="stroke-dashoffset:50">
      <path
         transform="rotate(89.855,192.95,194.17)"
         d="m 192.95,13.727 c -99.613,0 -180.46,80.808 -180.46,180.42 0,99.614 80.851,180.46 180.46,180.46 99.614,0 180.46,-80.851 180.46,-180.46 0,-99.614 -80.851,-180.42 -180.46,-180.42 z m 0,93.792 c 47.823,0 86.63,38.808 86.63,86.63 0,47.822 -38.807,86.672 -86.63,86.672 -47.822,0 -86.629,-38.85 -86.629,-86.672 0,-47.822 38.807,-86.63 86.629,-86.63 z"
         id="path15"
         inkscape:connector-curvature="0"
         style="fill:#ffffff;stroke:#777777;stroke-width:4;stroke-opacity:1" />
      <g
         id="g25"
         style="stroke-width:2">
        <path
           transform="rotate(89.855,188.72,190.39)"
           d="m 226.29,262.04 c -2.513,-0.987 -5.31,-0.96298 -7.806,0.066 -2.24,0.91901 -4.517,1.718 -6.799,2.417 -2.376,0.728 -4.807,1.341 -7.27,1.844 -2.457,0.50201 -4.896,0.867 -7.398,1.131 -2.496,0.26401 -5.056,0.422 -7.584,0.44199 -2.533,0.019 -5.017,-0.071 -7.559,-0.30298 -2.579,-0.23502 -5.16,-0.61401 -7.654,-1.096 -2.516,-0.48599 -5.02,-1.098 -7.573,-1.864 -2.57,-0.771 -5.131,-1.654 -7.57,-2.664 -5.333,-2.209 -11.448,0.32398 -13.657,5.657 l -36.634,88.443 c -2.209,5.333 0.324,11.447 5.657,13.657 4.112,1.704 8.028,2.922 11.58,4.137 1.516,0.51901 3.564,1.387 6.209,2.195 3.867,1.179 7.447,1.977 10.643,2.758 2.172,0.53101 4.822,1.304 7.968,1.933 3.756,0.75198 7.154,1.128 10.148,1.564 2.508,0.36298 5.441,0.90298 8.776,1.231 3.281,0.32599 6.219,0.39002 8.786,0.52802 3.149,0.164 6.653,0.435 10.477,0.427 2.956,-0.002 5.359,-0.267 7.259,-0.34003 0.014,0.005 0.027,0.011 0.041,0.016 3.63,-0.14502 7.576,-0.233 11.825,-0.664 2.985,-0.30002 5.388,-0.78302 7.267,-1.044 3.346,-0.46899 7.093,-0.90399 11.126,-1.709 3.404,-0.67798 6.361,-1.53 8.964,-2.179 2.864,-0.715 6.145,-1.402 9.704,-2.486 2.46,-0.75 4.319,-1.56 5.695,-2.026 3.807,-1.29 7.896,-2.604 12.129,-4.357 2.568,-1.059 4.627,-3.09 5.69,-5.657 1.063,-2.567 1.044,-5.459 -0.024,-8.024 l -36.581,-88.316 c -1.09,-2.618 -3.195,-4.682 -5.835,-5.717 z M 263.046,11.01 c -49.451,-20.483 -102.69,-18.925 -148.57,0.07301 -5.321,2.2123 -7.849,8.3136 -5.65,13.641 l 36.329,87.788 c 1.067,2.566 3.104,4.595 5.674,5.65 2.57,1.056 5.462,1.052 8.024,-0.023 0.16199,-0.068 0.10997,-0.078 0.24399,-0.135 0.597,-0.24699 0.71399,-0.29999 0.85399,-0.353 0.05,-0.023 0.31601,-0.096 0.32402,-0.10099 1.904,-0.74301 3.869,-1.421 5.889,-2.04 2.436,-0.74601 4.821,-1.369 7.23,-1.861 2.402,-0.49101 4.905,-0.88501 7.455,-1.154 2.496,-0.264 4.999,-0.39901 7.527,-0.418 2.533,-0.02 5.057,0.087 7.599,0.319 2.607,0.238 5.155,0.56099 7.631,1.039 2.496,0.482 5.05,1.112 7.612,1.881 2.579,0.77299 5.075,1.677 7.514,2.688 5.333,2.208 11.447,-0.324 13.657,-5.657 l 36.317,-87.679 c 2.209,-5.3334 -0.32398,-11.448 -5.657,-13.657 z m 99.252,99.425 c -2.532,-1.018 -5.363,-1.007 -7.887,0.034 l -87.747,36.346 c -5.321,2.212 -7.849,8.314 -5.65,13.641 0.91901,2.24 1.717,4.517 2.416,6.799 0.746,2.435 1.369,4.821 1.861,7.229 0.491,2.403 0.84601,4.889 1.115,7.439 0.263,2.496 0.43802,5.015 0.45801,7.544 0.019,2.532 -0.088,5.056 -0.319,7.599 -0.23801,2.607 -0.56201,5.155 -1.04,7.63 -0.482,2.497 -1.152,5.034 -1.92,7.596 -0.68701,2.289 -1.499,4.593 -2.438,6.91 -0.10098,0.22501 -0.18698,0.34601 -0.44098,0.94899 -1.074,2.564 -1.075,5.437 -0.016,8.007 1.058,2.571 3.089,4.627 5.657,5.69 l 88.121,36.501 c 5.333,2.209 11.447,-0.324 13.657,-5.657 2.445,-5.903 4.518,-11.849 6.332,-17.789 1.155,-3.788 1.913,-7.25 2.665,-10.305 0.58499,-2.378 1.364,-5.162 2.003,-8.363 0.71701,-3.587 1.108,-6.851 1.534,-9.735 0.388,-2.65 0.91598,-5.654 1.251,-9.052 0.35501,-3.568 0.42801,-6.852 0.57202,-9.804 0.006,-0.013 0.011,-0.027 0.017,-0.04 0.12598,-2.69 0.38199,-5.754 0.379,-9.224 0.002,-3.279 -0.211,-6.153 -0.323,-8.667 -0.146,-3.192 -0.26901,-6.721 -0.64801,-10.498 -0.298,-2.993 -0.75299,-5.595 -1.062,-7.794 -0.47897,-3.379 -0.94598,-7.084 -1.742,-11.045 -0.595,-2.972 -1.297,-5.372 -1.77,-7.334 -0.82001,-3.388 -1.652,-7.127 -2.858,-11.083 -0.75,-2.461 -1.559,-4.319 -2.025,-5.695 -1.291,-3.807 -2.605,-7.896 -4.358,-12.128 -1.083,-2.604 -3.173,-4.66 -5.794,-5.701 z m -339.28,-0.003 c -5.3334,-2.209 -11.448,0.32401 -13.657,5.657 -20.485,49.454 -18.996,102.7 0.016,148.6 1.0591,2.568 3.0901,4.627 5.6571,5.69 2.5669,1.063 5.4586,1.044 8.0238,-0.023 l 88.316,-36.582 c 2.566,-1.067 4.595,-3.104 5.65,-5.674 1.056,-2.57 1.052,-5.462 -0.023,-8.024 -0.019,-0.045 -0.05,-0.121 -0.094,-0.22801 -0.936,-2.257 -1.748,-4.63 -2.494,-7.067 -0.74701,-2.435 -1.369,-4.821 -1.861,-7.229 -0.508,-2.482 -0.895,-4.992 -1.155,-7.455 -0.254,-2.41 -0.381,-4.95 -0.401,-7.568 -0.02,-2.622 0.038,-5.124 0.262,-7.575 0.22899,-2.516 0.60099,-5.087 1.096,-7.654 0.482,-2.497 1.136,-4.994 1.904,-7.556 0.707,-2.357 1.573,-4.788 2.555,-7.191 2.18,-5.327 -0.35701,-11.414 -5.674,-13.617 l -88.121004,-36.501 z"
           id="path17"
           inkscape:connector-curvature="0"
           style="fill:#777777;stroke-linejoin:round;fill-opacity:1" />
        <g
           id="g23"
           style="fill:#cccccc;stroke-opacity:0">
          <path
             transform="rotate(89.855,-0.35547,200.81)"
             d="m -6.5007,201.08 v 0.043 c 4.1509,0 8.2045,-0.379 12.291,-0.636 -4.0973,0.258 -8.187,0.593 -12.291,0.593 z"
             id="path19"
             inkscape:connector-curvature="0" />
          <path
             transform="rotate(89.855,199.16,0.32031)"
             d="m 198.89,6.466 c 0,-4.104 0.33499,-8.1936 0.59399,-12.291 -0.258,4.0864 -0.636,8.14 -0.636,12.291 h 0.042 z"
             id="path21"
             inkscape:connector-curvature="0" />
        </g>
      </g>
    </g>
  </g>
</svg>
