<?xml version="1.0" encoding="UTF-8" standalone="no"?>
<svg
   xmlns:dc="http://purl.org/dc/elements/1.1/"
   xmlns:cc="http://creativecommons.org/ns#"
   xmlns:rdf="http://www.w3.org/1999/02/22-rdf-syntax-ns#"
   xmlns:svg="http://www.w3.org/2000/svg"
   xmlns="http://www.w3.org/2000/svg"
   xmlns:sodipodi="http://sodipodi.sourceforge.net/DTD/sodipodi-0.dtd"
   xmlns:inkscape="http://www.inkscape.org/namespaces/inkscape"
   version="1.1"
   viewBox="0 0 30 30"
   id="svg4"
   sodipodi:docname="information-1294813.svg"
   width="30"
   height="30"
   inkscape:version="0.92.3 (2405546, 2018-03-11)"
   inkscape:export-filename="/home/enrique/Alive/Homeware-LAN/web/public/devices/information.png"
   inkscape:export-xdpi="96"
   inkscape:export-ydpi="96">
  <metadata
     id="metadata10">
    <rdf:RDF>
      <cc:Work
         rdf:about="">
        <dc:format>image/svg+xml</dc:format>
        <dc:type
           rdf:resource="http://purl.org/dc/dcmitype/StillImage" />
        <dc:title></dc:title>
      </cc:Work>
    </rdf:RDF>
  </metadata>
  <defs
     id="defs8" />
  <sodipodi:namedview
     pagecolor="#ffffff"
     bordercolor="#666666"
     borderopacity="1"
     objecttolerance="10"
     gridtolerance="10"
     guidetolerance="10"
     inkscape:pageopacity="0"
     inkscape:pageshadow="2"
     inkscape:window-width="1920"
     inkscape:window-height="1025"
     id="namedview6"
     showgrid="false"
     inkscape:zoom="8.9001173"
     inkscape:cx="8.1644267"
     inkscape:cy="15.537256"
     inkscape:window-x="0"
     inkscape:window-y="27"
     inkscape:window-maximized="1"
     inkscape:current-layer="svg4" />
  <path
     d="M 30.043005,15.052174 C 30.035432,23.22551 23.437883,29.906149 15.183997,29.901114 6.9854902,29.89608 0.34260954,23.278371 0.34512692,15.044623 0.34764139,6.8008068 7.0182132,0.20575325 15.196583,0.20323587 23.392573,0.2007214 30.043005,6.8561851 30.043005,15.052174 Z m -12.283917,3.252218 c 0,-1.830001 -0.0025,-3.657485 0.0025,-5.487487 0.0025,-0.692229 -0.244167,-1.278735 -0.755158,-1.734348 -0.805503,-0.719918 -1.741899,-0.87095 -2.746261,-0.516025 -0.959052,0.339822 -1.600937,1.261115 -1.595903,2.303234 0.02013,3.644899 0.01006,7.289799 0.0051,10.934699 0,2.059066 1.764554,2.406439 2.607815,2.403923 1.268666,-0.0051 2.514679,-1.027017 2.489507,-2.494542 -0.03273,-1.802312 -0.0076,-3.607142 -0.0076,-5.409454 z M 17.932775,6.6094997 c -0.0025,-1.5203864 -1.215805,-2.7311576 -2.738709,-2.7311576 -1.525421,0 -2.743743,1.22084 -2.741227,2.7462607 0.0025,1.5078004 1.233426,2.7361926 2.743744,2.7361926 1.520387,0 2.736192,-1.2233572 2.736192,-2.7512957 z"
     id="path2"
     inkscape:connector-curvature="0"
     style="stroke-width:0.02517196;fill:#777777;fill-opacity:1" />
</svg>
