<?xml version="1.0" encoding="UTF-8" standalone="no"?>
<svg
   xmlns:dc="http://purl.org/dc/elements/1.1/"
   xmlns:cc="http://creativecommons.org/ns#"
   xmlns:rdf="http://www.w3.org/1999/02/22-rdf-syntax-ns#"
   xmlns:svg="http://www.w3.org/2000/svg"
   xmlns="http://www.w3.org/2000/svg"
   xmlns:sodipodi="http://sodipodi.sourceforge.net/DTD/sodipodi-0.dtd"
   xmlns:inkscape="http://www.inkscape.org/namespaces/inkscape"
   viewBox="0 0 29.999999 29.999999"
   version="1.1"
   id="svg8"
   sodipodi:docname="tasks_icon.svg"
   inkscape:version="0.92.3 (2405546, 2018-03-11)"
   width="30"
   height="30"
   inkscape:export-filename="/home/enrique/Alive/Homeware-LAN/web/public/tasks_icon.png"
   inkscape:export-xdpi="96"
   inkscape:export-ydpi="96">
  <metadata
     id="metadata14">
    <rdf:RDF>
      <cc:Work
         rdf:about="">
        <dc:format>image/svg+xml</dc:format>
        <dc:type
           rdf:resource="http://purl.org/dc/dcmitype/StillImage" />
        <dc:title></dc:title>
      </cc:Work>
    </rdf:RDF>
  </metadata>
  <defs
     id="defs12" />
  <sodipodi:namedview
     pagecolor="#ffffff"
     bordercolor="#666666"
     borderopacity="1"
     objecttolerance="10"
     gridtolerance="10"
     guidetolerance="10"
     inkscape:pageopacity="0"
     inkscape:pageshadow="2"
     inkscape:window-width="1920"
     inkscape:window-height="1025"
     id="namedview10"
     showgrid="false"
     inkscape:zoom="20.025389"
     inkscape:cx="11.824513"
     inkscape:cy="13.367486"
     inkscape:window-x="0"
     inkscape:window-y="27"
     inkscape:window-maximized="1"
     inkscape:current-layer="svg8"
     showguides="true"
     inkscape:guide-bbox="true">
    <sodipodi:guide
       position="6.6415688,15.030919"
       orientation="0,1"
       id="guide823"
       inkscape:locked="false" />
  </sodipodi:namedview>
  <g
     id="g6"
     style="fill:none"
     transform="matrix(0.06743309,0,0,0.06743309,-1.8654043,-1.7443081)">
    <path
       d="m 53.141,271.84 c 0.55954,15.199 5.6533,32.249 16.562,41.344 28.188,13.229 15.173,-18.908 34.688,-22.688 19.515,-3.7798 20.594,18.906 20.594,18.906 v 97.75 l 96.938,-0.125 c 0,0 22.686,-1.0792 18.906,-20.594 -3.0711,-15.856 -24.878,-10.233 -25.844,-22.688 -0.22286,-2.8742 0.67577,-6.7148 3.1562,-12 9.0951,-10.909 26.144,-16.003 41.344,-16.562 5.611,-0.20657 10.888,0.2833 15.5,1.25 0.20468,0.0248 0.42017,0.0673 0.625,0.0937 13.114,1.6939 26.418,6.7618 34.094,15.969 13.229,28.188 -18.908,15.173 -22.688,34.688 -2.7539,14.218 8.4783,18.61 14.812,19.969 h 102.91 v -101.59 c 1.2183,-6.2012 5.4891,-18.241 20.125,-15.406 19.515,3.7798 6.4998,35.886 34.688,22.656 9.207,-7.676 14.275,-20.979 15.969,-34.094 0.0265,-0.20483 0.0689,-0.42032 0.0937,-0.625 0.9667,-4.6121 1.4566,-9.8891 1.25,-15.5 -0.55954,-15.199 -5.6533,-32.249 -16.562,-41.344 -28.188,-13.229 -15.173,18.908 -34.688,22.688 -19.515,3.7798 -20.594,-18.906 -20.594,-18.906 l -0.2812,-97.188 c 0,0 -98.25,0.62501 -98.25,0.62499 0,0 -22.686,1.0792 -18.906,20.594 3.7798,19.515 35.917,6.4998 22.688,34.688 -9.0951,10.909 -26.144,16.003 -41.344,16.562 -5.6109,0.20656 -10.888,-0.28328 -15.5,-1.25 -0.20468,-0.0248 -0.42018,-0.0673 -0.625,-0.0937 -13.114,-1.6939 -26.418,-6.7618 -34.094,-15.969 -2.4805,-5.2852 -3.3791,-9.1258 -3.1562,-12 0.96571,-12.455 22.741,-6.8319 25.812,-22.688 3.5267,-18.208 -15.34,-20.261 -17.969,-20.469 h -98.406 v 102.16 c -1.4819,6.4056 -5.9919,16.964 -19.844,14.281 -19.515,-3.7798 -6.4998,-35.886 -34.688,-22.656 -9.2069,7.676 -14.275,20.979 -15.969,34.094 -0.02646,0.20483 -0.06894,0.4203 -0.09375,0.62502 -0.9667,4.612 -1.4566,9.889 -1.25,15.5 z"
       id="path2"
       inkscape:connector-curvature="0"
       style="fill-opacity:0.5;stroke-width:3.58500004" />
    <path
       d="m 46.710826,256.34701 c 0.537262,16.32571 5.428223,34.63964 15.902612,44.40886 27.065743,14.20968 14.568913,-20.30967 33.306957,-24.36988 18.738045,-4.06 19.774085,20.30753 19.774085,20.30753 V 401.6898 l 93.07857,-0.13427 c 0,0 21.7828,-1.1592 18.1533,-22.12066 -2.94884,-17.0314 -23.88753,-10.99157 -24.81507,-24.36987 -0.214,-3.08727 0.64885,-7.21257 3.03054,-12.88957 8.733,-11.7177 25.10312,-17.18932 39.69796,-17.78975 5.38761,-0.22189 10.45451,0.3043 14.88289,1.34266 0.19653,0.0266 0.40344,0.0723 0.60012,0.10057 12.59188,1.81946 25.36621,7.26304 32.7366,17.15279 12.70231,30.27758 -18.1552,16.29777 -21.78471,37.25944 -2.64426,15.27199 8.14075,19.98957 14.22229,21.44932 h 98.81281 v -109.1209 c 1.1698,-6.6609 5.27056,-19.59323 19.32375,-16.54807 18.73805,4.06 6.24103,38.54626 33.30696,24.33551 8.84044,-8.24492 13.70667,-22.53418 15.33323,-36.62142 0.0254,-0.22001 0.0661,-0.45147 0.0899,-0.67132 0.92821,-4.95389 1.39852,-10.62209 1.20024,-16.64903 -0.53726,-16.32572 -5.42822,-34.63964 -15.90261,-44.40887 -27.06575,-14.20968 -14.56892,20.30966 -33.30696,24.36989 -18.73804,4.06 -19.77409,-20.30753 -19.77409,-20.30753 l -0.27,-104.39261 c 0,0 -94.33835,0.67134 -94.33835,0.67133 0,0 -21.78279,1.1592 -18.15328,22.12065 3.62931,20.96165 34.48702,6.98163 21.78471,37.25944 -8.73299,11.71769 -25.10312,17.18932 -39.69796,17.78976 -5.3876,0.22188 -10.45451,-0.3043 -14.88289,-1.34266 -0.19655,-0.0266 -0.40347,-0.0723 -0.60012,-0.10057 -12.59189,-1.81946 -25.36621,-7.26305 -32.7366,-17.15279 -2.38175,-5.677 -3.24457,-9.8023 -3.03054,-12.88957 0.92725,-13.3783 21.8356,-7.33835 24.78433,-24.36987 3.38629,-19.55779 -14.72926,-21.76297 -17.25359,-21.98639 h -94.48813 v 109.7332 c -1.42291,6.88045 -5.75335,18.22156 -19.053945,15.33966 -18.738042,-4.06 -6.24102,-38.54626 -33.306955,-24.33551 -8.840343,8.24503 -13.706665,22.5342 -15.333222,36.62142 -0.0254,0.22 -0.0662,0.45146 -0.09001,0.67134 -0.928212,4.95388 -1.398608,10.62207 -1.200233,16.64902 z"
       id="path4"
       style="fill:none;fill-opacity:1;stroke:#777777;stroke-width:14.82951471;stroke-linejoin:round;stroke-miterlimit:4;stroke-dasharray:none;stroke-opacity:1"
       inkscape:connector-curvature="0" />
  </g>
</svg>
