<?xml version="1.0" encoding="UTF-8" standalone="no"?>
<svg
   xmlns:dc="http://purl.org/dc/elements/1.1/"
   xmlns:cc="http://creativecommons.org/ns#"
   xmlns:rdf="http://www.w3.org/1999/02/22-rdf-syntax-ns#"
   xmlns:svg="http://www.w3.org/2000/svg"
   xmlns="http://www.w3.org/2000/svg"
   xmlns:sodipodi="http://sodipodi.sourceforge.net/DTD/sodipodi-0.dtd"
   xmlns:inkscape="http://www.inkscape.org/namespaces/inkscape"
   viewBox="0 0 30 30"
   version="1.1"
   id="svg8"
   sodipodi:docname="access_icon.svg"
   width="30"
   height="30"
   inkscape:version="0.92.3 (2405546, 2018-03-11)"
   inkscape:export-filename="/home/enrique/Alive/Homeware-LAN/web/public/access_icon.png"
   inkscape:export-xdpi="96"
   inkscape:export-ydpi="96">
  <metadata
     id="metadata14">
    <rdf:RDF>
      <cc:Work
         rdf:about="">
        <dc:format>image/svg+xml</dc:format>
        <dc:type
           rdf:resource="http://purl.org/dc/dcmitype/StillImage" />
        <dc:title></dc:title>
      </cc:Work>
    </rdf:RDF>
  </metadata>
  <defs
     id="defs12" />
  <sodipodi:namedview
     pagecolor="#ffffff"
     bordercolor="#666666"
     borderopacity="1"
     objecttolerance="10"
     gridtolerance="10"
     guidetolerance="10"
     inkscape:pageopacity="0"
     inkscape:pageshadow="2"
     inkscape:window-width="1920"
     inkscape:window-height="1025"
     id="namedview10"
     showgrid="false"
     inkscape:zoom="17.204407"
     inkscape:cx="13.520783"
     inkscape:cy="19.445058"
     inkscape:window-x="0"
     inkscape:window-y="27"
     inkscape:window-maximized="1"
     inkscape:current-layer="svg8" />
  <g
     transform="matrix(0.09826065,0,0,0.09826065,-147.6112,-147.17048)"
     id="g6">
    <path
       d="m 1659.3,1495.5 c -0.9683,0.01 -1.9372,0.021 -2.9063,0.062 -44.496,0.284 -84.418,39.853 -84.531,84.469 -0.5035,10.517 0.1466,21.042 0.031,31.563 h -21.438 c 0.5678,46.226 -1.1556,92.56 0.9062,138.72 4.4359,29.724 31.126,56.603 62.25,55.156 34.078,-0.066 68.262,1.0541 102.28,-0.6876 31.934,-5.5024 54.359,-38.293 51.938,-70.031 0.3669,-41.041 -0.035,-82.083 0.125,-123.12 -7.1142,-0.1818 -14.23,0.139 -21.344,-0.094 0.5401,-24.99 1.715,-52.307 -12.531,-73.969 -15.406,-25.706 -44.767,-42.255 -74.781,-42.062 z m 0.4062,35.688 c 25.281,0.3463 50.259,21.283 49.531,47.625 0.5019,10.922 0.8363,21.85 1.0626,32.781 -34.011,-0.02 -68.021,0.053 -102.03,-0.063 0.1057,-17.098 -4.4827,-35.793 4.875,-51.187 8.4966,-16.311 25.48,-28.793 44.125,-29.125 0.8153,-0.032 1.622,-0.043 2.4375,-0.031 z"
       id="path2"
       inkscape:connector-curvature="0"
       style="opacity:0.98000004;fill:none" />
    <path
       d="m 1657.1,1501.5 c -44.13,1.1108 -79.312,37.031 -79.312,81.438 v 34.625 h -21.344 v 117.75 h 0.031 c -0.031,0.8505 -0.031,1.7033 -0.031,2.5625 0,34.197 25.051,61.719 56.187,61.719 h 93.094 c 31.136,0 56.219,-27.522 56.219,-61.719 0,-0.859 -0.032,-1.7123 -0.063,-2.5625 h 0.063 v -117.75 h -21.313 v -34.625 c 0,-45.111 -36.295,-81.438 -81.406,-81.438 -0.7049,0 -1.4245,-0.018 -2.125,0 z m -0.375,23.75 c 0.5355,-0.013 1.0865,0 1.625,0 25.79,-0.6025 51.139,18.477 56.406,43.812 0.8967,16.166 1.4017,32.319 1.6876,48.5 h -114.31 c -0.027,-7.7372 -0.063,-15.456 -0.2187,-23.188 -6.5279,-33.085 21.075,-68.332 54.812,-69.125 z m 2.375,135.38 c 1.2168,0 2.4472,0.095 3.6875,0.2812 13.23,1.9847 22.36,14.301 20.375,27.531 -0.9138,6.092 -4.0565,11.334 -8.4375,15 l 8.4688,53.094 h -48 l 8.4374,-53.094 c -6.2414,-5.2417 -9.7038,-13.536 -8.4062,-22.188 1.7986,-11.99 12.112,-20.593 23.875,-20.625 z"
       id="path4"
       inkscape:connector-curvature="0"
       style="opacity:0.98000004;stroke:none;fill:#777777;fill-opacity:1" />
  </g>
</svg>
