<?xml version="1.0" encoding="UTF-8" standalone="no"?>
<!-- Generator: Adobe Illustrator 19.0.0, SVG Export Plug-In . SVG Version: 6.00 Build 0)  -->

<svg
   xmlns:dc="http://purl.org/dc/elements/1.1/"
   xmlns:cc="http://creativecommons.org/ns#"
   xmlns:rdf="http://www.w3.org/1999/02/22-rdf-syntax-ns#"
   xmlns:svg="http://www.w3.org/2000/svg"
   xmlns="http://www.w3.org/2000/svg"
   xmlns:sodipodi="http://sodipodi.sourceforge.net/DTD/sodipodi-0.dtd"
   xmlns:inkscape="http://www.inkscape.org/namespaces/inkscape"
   version="1.1"
   id="Capa_1"
   x="0px"
   y="0px"
   viewBox="0 0 30.000001 30.000001"
   xml:space="preserve"
   sodipodi:docname="bin_icon.svg"
   inkscape:version="0.92.3 (2405546, 2018-03-11)"
   width="30"
   height="30"><metadata
   id="metadata67"><rdf:RDF><cc:Work
       rdf:about=""><dc:format>image/svg+xml</dc:format><dc:type
         rdf:resource="http://purl.org/dc/dcmitype/StillImage" /><dc:title></dc:title></cc:Work></rdf:RDF></metadata><defs
   id="defs65" /><sodipodi:namedview
   pagecolor="#ffffff"
   bordercolor="#666666"
   borderopacity="1"
   objecttolerance="10"
   gridtolerance="10"
   guidetolerance="10"
   inkscape:pageopacity="0"
   inkscape:pageshadow="2"
   inkscape:window-width="1317"
   inkscape:window-height="713"
   id="namedview63"
   showgrid="false"
   inkscape:zoom="8.838124"
   inkscape:cx="9.1306394"
   inkscape:cy="6.2049443"
   inkscape:window-x="49"
   inkscape:window-y="27"
   inkscape:window-maximized="1"
   inkscape:current-layer="Capa_1" />
<g
   id="g6"
   transform="matrix(0.07003936,0,0,0.07003936,0.105749,0.07639479)">
	<g
   id="g4">
		<path
   d="m 232.66,144.96 -0.4,-0.44 c -4.932,-4.966 -11.641,-7.759 -18.64,-7.76 -6.771,0.006 -13.278,2.628 -18.16,7.32 l -0.44,0.4 c -4.951,4.939 -7.729,11.647 -7.72,18.64 v 183.32 c 0.022,14.534 11.787,26.316 26.32,26.36 14.549,-0.022 26.338,-11.811 26.36,-26.36 V 163.12 c -0.01,-6.77 -2.632,-13.276 -7.32,-18.16 z m -7.04,201.48 c -0.128,6.574 -5.426,11.872 -12,12 -6.574,-0.128 -11.872,-5.426 -12,-12 V 163.12 c -0.019,-3.229 1.265,-6.329 3.56,-8.6 l 0.28,-0.28 c 2.207,-2.087 5.123,-3.259 8.16,-3.28 3.229,-0.019 6.329,1.265 8.6,3.56 l 0.32,0.28 c 2.052,2.278 3.154,5.255 3.08,8.32 z"
   id="path2"
   style="fill:#777777;fill-opacity:1"
   inkscape:connector-curvature="0" />
	</g>
</g>
<g
   id="g12"
   transform="matrix(0.07003936,0,0,0.07003936,0.105749,0.07639479)">
	<g
   id="g10">
		<path
   d="m 149.22,144.48 c -4.926,-4.945 -11.62,-7.723 -18.6,-7.72 -6.771,0.006 -13.278,2.628 -18.16,7.32 l -0.44,0.4 c -4.951,4.939 -7.729,11.647 -7.72,18.64 v 183.32 c -0.003,6.98 2.775,13.674 7.72,18.6 4.922,4.956 11.615,7.748 18.6,7.76 6.98,0.003 13.674,-2.775 18.6,-7.72 4.945,-4.926 7.723,-11.62 7.72,-18.6 V 163.12 c 0.009,-6.993 -2.769,-13.701 -7.72,-18.64 z m -6.28,201.96 c 0,6.627 -5.373,12 -12,12 -6.627,0 -12,-5.373 -12,-12 l -0.32,-183.32 c -0.019,-3.229 1.265,-6.329 3.56,-8.6 l 0.28,-0.28 c 2.247,-2.125 5.228,-3.3 8.32,-3.28 3.229,-0.019 6.329,1.265 8.6,3.56 2.295,2.271 3.579,5.371 3.56,8.6 z"
   id="path8"
   style="fill:#777777;fill-opacity:1"
   inkscape:connector-curvature="0" />
	</g>
</g>
<g
   id="g18"
   transform="matrix(0.07003936,0,0,0.07003936,0.105749,0.07639479)">
	<g
   id="g16">
		<path
   d="m 315.22,144.48 c -4.929,-4.941 -11.621,-7.719 -18.6,-7.72 -6.771,0.006 -13.278,2.628 -18.16,7.32 l -0.44,0.4 c -4.951,4.939 -7.729,11.647 -7.72,18.64 v 183.32 c 10e-4,6.979 2.779,13.671 7.72,18.6 4.922,4.956 11.615,7.748 18.6,7.76 6.98,0.003 13.674,-2.775 18.6,-7.72 4.945,-4.926 7.723,-11.62 7.72,-18.6 V 163.12 c 0.009,-6.993 -2.769,-13.701 -7.72,-18.64 z m -6.24,201.96 c 0,6.627 -5.373,12 -12,12 -6.627,0 -12,-5.373 -12,-12 l -0.36,-183.32 c -0.008,-3.235 1.29,-6.336 3.6,-8.6 l 0.28,-0.28 c 2.247,-2.125 5.228,-3.3 8.32,-3.28 3.229,-0.019 6.329,1.265 8.6,3.56 2.295,2.271 3.579,5.371 3.56,8.6 z"
   id="path14"
   style="fill:#777777;fill-opacity:1"
   inkscape:connector-curvature="0" />
	</g>
</g>
<g
   id="g24"
   transform="matrix(0.07003936,0,0,0.07003936,0.105749,0.07639479)">
	<g
   id="g22">
		<path
   d="m 397.9,46.24 c -4.926,-4.945 -11.62,-7.723 -18.6,-7.72 H 294.74 C 291.172,16.358 272.068,0.048 249.62,0 h -72 c -22.432,0.067 -41.514,16.373 -45.08,38.52 h -84.6 c -14.533,0.044 -26.298,11.826 -26.32,26.36 0.006,6.771 2.628,13.278 7.32,18.16 l 0.4,0.44 c 4.939,4.951 11.647,7.729 18.64,7.72 H 379.3 c 6.98,0.003 13.674,-2.775 18.6,-7.72 4.945,-4.926 7.723,-11.62 7.72,-18.6 0.009,-6.993 -2.769,-13.701 -7.72,-18.64 z M 155.38,23.4 c 5.888,-5.917 13.892,-9.243 22.24,-9.24 h 72 c 14.618,0.055 27.291,10.13 30.64,24.36 H 146.98 c 1.335,-5.725 4.245,-10.962 8.4,-15.12 z M 379.26,77.04 H 47.94 C 44.742,77.08 41.661,75.841 39.38,73.6 L 39.1,73.32 C 36.975,71.073 35.801,68.092 35.82,65 l -0.04,-0.12 c 0.128,-6.574 5.426,-11.872 12,-12 H 379.1 c 3.229,-0.019 6.329,1.265 8.6,3.56 2.295,2.271 3.579,5.371 3.56,8.6 0,6.627 -5.373,12 -12,12 z"
   id="path20"
   style="fill:#777777;fill-opacity:1"
   inkscape:connector-curvature="0" />
	</g>
</g>
<g
   id="g30"
   transform="matrix(0.07003936,0,0,0.07003936,0.105749,0.07639479)">
	<g
   id="g28">
		<path
   d="m 360.7,105.4 v 287.4 c -0.044,11.16 -9.08,20.196 -20.24,20.24 H 86.78 C 75.62,412.996 66.584,403.96 66.54,392.8 V 105.4 h -14.2 v 287.4 c 0.044,19.002 15.438,34.396 34.44,34.44 h 253.68 c 19.002,-0.044 34.396,-15.438 34.44,-34.44 V 105.4 Z"
   id="path26"
   style="fill:#777777;fill-opacity:1"
   inkscape:connector-curvature="0" />
	</g>
</g>
<g
   id="g32"
   transform="translate(0,-397.23999)">
</g>
<g
   id="g34"
   transform="translate(0,-397.23999)">
</g>
<g
   id="g36"
   transform="translate(0,-397.23999)">
</g>
<g
   id="g38"
   transform="translate(0,-397.23999)">
</g>
<g
   id="g40"
   transform="translate(0,-397.23999)">
</g>
<g
   id="g42"
   transform="translate(0,-397.23999)">
</g>
<g
   id="g44"
   transform="translate(0,-397.23999)">
</g>
<g
   id="g46"
   transform="translate(0,-397.23999)">
</g>
<g
   id="g48"
   transform="translate(0,-397.23999)">
</g>
<g
   id="g50"
   transform="translate(0,-397.23999)">
</g>
<g
   id="g52"
   transform="translate(0,-397.23999)">
</g>
<g
   id="g54"
   transform="translate(0,-397.23999)">
</g>
<g
   id="g56"
   transform="translate(0,-397.23999)">
</g>
<g
   id="g58"
   transform="translate(0,-397.23999)">
</g>
<g
   id="g60"
   transform="translate(0,-397.23999)">
</g>
</svg>